<svg id="visual" viewBox="0 0 960 540" width="960" height="540" xmlns="http://www.w3.org/2000/svg" xmlns:xlink="http://www.w3.org/1999/xlink" version="1.1"><rect x="0" y="0" width="960" height="540" fill="#ffffff"></rect><g transform="translate(529.2368449347576 420.6763538693219)"><path d="M212.4 -501.4C223.6 -361.6 145.1 -200 167.8 -112.8C190.5 -25.7 314.2 -12.8 374.1 34.6C434 82 430.1 164 362.1 172.7C294.1 181.3 162 116.6 91 180.1C20 243.6 10 435.3 5 426.7C0 418 0 209 -117.2 172.2C-234.4 135.3 -468.8 270.7 -508.3 270.7C-547.8 270.7 -392.4 135.3 -386.5 3.4C-380.6 -128.5 -524.1 -257 -512.8 -305.8C-501.5 -354.6 -335.2 -323.6 -224 -405.6C-112.7 -487.6 -56.3 -682.6 22.2 -721C100.7 -759.4 201.3 -641.2 212.4 -501.4" fill="#e9e9e9"></path></g></svg>